<svg width="73" height="30" viewBox="0 0 73 30" fill="none" xmlns="http://www.w3.org/2000/svg">
<path d="M64.5705 20.1771L58.5705 14.8438C58.438 14.727 58.3573 14.5624 58.3461 14.3862C58.3348 14.2099 58.394 14.0364 58.5105 13.9038C58.6273 13.7713 58.7918 13.6906 58.9681 13.6793C59.1443 13.6681 59.3178 13.7272 59.4505 13.8438L65.0105 18.7837L70.5705 13.8438C70.7043 13.736 70.8745 13.684 71.0456 13.6987C71.2168 13.7134 71.3757 13.7936 71.4892 13.9225C71.6026 14.0515 71.662 14.2193 71.6548 14.3909C71.6476 14.5625 71.5744 14.7248 71.4505 14.8438L65.4505 20.1771C65.3288 20.284 65.1724 20.3429 65.0105 20.3429C64.8486 20.3429 64.6921 20.284 64.5705 20.1771Z" fill="#3F51B5"/>
<g clip-path="url(#clip0_7117_234)">
<path d="M0 17H20V22H0V17Z" fill="#1EB53A"/>
<path d="M0 7H20V12H0V7Z" fill="#0099B5"/>
<path d="M0 11.7998H20V17.1998H0V11.7998Z" fill="#CE1126"/>
<path d="M0 12.1001H20V16.9001H0V12.1001Z" fill="white"/>
<path d="M4.19996 11.2001C5.19407 11.2001 5.99996 10.3942 5.99996 9.4001C5.99996 8.40599 5.19407 7.6001 4.19996 7.6001C3.20584 7.6001 2.39996 8.40599 2.39996 9.4001C2.39996 10.3942 3.20584 11.2001 4.19996 11.2001Z" fill="white"/>
<path d="M4.80001 11.2001C5.79412 11.2001 6.60001 10.3942 6.60001 9.4001C6.60001 8.40599 5.79412 7.6001 4.80001 7.6001C3.80589 7.6001 3 8.40599 3 9.4001C3 10.3942 3.80589 11.2001 4.80001 11.2001Z" fill="#0099B5"/>
<path d="M8.15935 10.4805L8.04535 10.8225L8.21936 10.8825" fill="white"/>
<path d="M8.15935 10.4805L8.04535 10.8225L8.21936 10.8825" fill="white"/>
<path d="M8.15935 10.4805L8.04535 10.8225L8.21936 10.8825" fill="white"/>
<path d="M8.15935 10.4805L8.04535 10.8225L8.21936 10.8825" fill="white"/>
<path d="M8.15935 10.4805L8.04535 10.8225L8.21936 10.8825" fill="white"/>
<path d="M8.15935 10.4805L8.04535 10.8225L8.21936 10.8825" fill="white"/>
<path d="M8.15935 10.4805L8.04535 10.8225L8.21936 10.8825" fill="white"/>
<path d="M8.15935 10.4805L8.04535 10.8225L8.21936 10.8825" fill="white"/>
<path d="M8.15935 10.4805L8.04535 10.8225L8.21936 10.8825" fill="white"/>
<path d="M8.15935 10.4805L8.04535 10.8225L8.21936 10.8825" fill="white"/>
<path d="M8.15935 10.4805L8.04535 10.8225L8.21936 10.8825" fill="white"/>
<path d="M8.15935 10.4805L8.04535 10.8225L8.21936 10.8825" fill="white"/>
<path d="M8.15935 10.4805L8.04535 10.8225L8.21936 10.8825" fill="white"/>
<path d="M8.15935 10.4805L8.04535 10.8225L8.21936 10.8825" fill="white"/>
<path d="M8.15935 10.4805L8.04535 10.8225L8.21936 10.8825" fill="white"/>
<path d="M8.15935 10.4805L8.04535 10.8225L8.21936 10.8825" fill="white"/>
<path d="M8.15935 10.4805L8.04535 10.8225L8.21936 10.8825" fill="white"/>
<path d="M8.15935 10.4805L8.04535 10.8225L8.21936 10.8825" fill="white"/>
<path d="M8.15935 10.4805L8.04535 10.8225L8.21936 10.8825" fill="white"/>
<path d="M8.15935 10.4805L8.04535 10.8225L8.21936 10.8825" fill="white"/>
<path d="M8.15935 10.4805L8.04535 10.8225L8.21936 10.8825" fill="white"/>
<path d="M8.15935 10.4805L8.04535 10.8225L8.21936 10.8825" fill="white"/>
<path d="M8.15935 10.4805L8.04535 10.8225L8.21936 10.8825" fill="white"/>
<path d="M8.15935 10.4805L8.04535 10.8225L8.21936 10.8825" fill="white"/>
<path d="M8.15935 10.4805L8.04535 10.8225L8.21936 10.8825" fill="white"/>
<path d="M8.15935 10.4805L8.04535 10.8225L8.21936 10.8825" fill="white"/>
<path d="M8.15935 10.4805L8.04535 10.8225L8.21936 10.8825" fill="white"/>
<path d="M8.15935 10.4805L8.04535 10.8225L8.21936 10.8825" fill="white"/>
<path d="M8.15935 10.4805L8.04535 10.8225L8.21936 10.8825" fill="white"/>
<path d="M8.15935 10.4805L8.04535 10.8225L8.21936 10.8825" fill="white"/>
<path d="M8.15935 10.4805L8.04535 10.8225L8.21936 10.8825" fill="white"/>
<path d="M8.15935 10.4805L8.04535 10.8225L8.21936 10.8825" fill="white"/>
<path d="M8.15935 10.4805L8.04535 10.8225L8.21936 10.8825" fill="white"/>
<path d="M8.15935 10.4805L8.04535 10.8225L8.21936 10.8825" fill="white"/>
<path d="M8.15935 10.4805L8.04535 10.8225L8.21936 10.8825" fill="white"/>
<path d="M8.15935 10.4805L8.04535 10.8225L8.21936 10.8825" fill="white"/>
<path d="M8.15935 10.4805L8.04535 10.8225L8.21936 10.8825" fill="white"/>
<path d="M8.15935 10.4805L8.04535 10.8225L8.21936 10.8825" fill="white"/>
<path d="M8.15935 10.4805L8.04535 10.8225L8.21936 10.8825" fill="white"/>
<path d="M8.15935 10.4805L8.04535 10.8225L8.21936 10.8825" fill="white"/>
<path d="M8.15935 10.4805L8.04535 10.8225L8.21936 10.8825" fill="white"/>
<path d="M8.15935 10.4805L8.04535 10.8225L8.21936 10.8825" fill="white"/>
<path d="M8.15935 10.4805L8.04535 10.8225L8.21936 10.8825" fill="white"/>
<path d="M8.15935 10.4805L8.04535 10.8225L8.21936 10.8825" fill="white"/>
<path d="M8.15935 10.4805L8.04535 10.8225L8.21936 10.8825" fill="white"/>
<path d="M8.15935 10.4805L8.04535 10.8225L8.21936 10.8825" fill="white"/>
<path d="M8.15935 10.4805L8.04535 10.8225L8.21936 10.8825" fill="white"/>
<path d="M8.15935 10.4805L8.04535 10.8225L8.21936 10.8825" fill="white"/>
<path d="M8.15935 10.4805L8.04535 10.8225L8.21936 10.8825" fill="white"/>
<path d="M8.15935 10.4805L8.04535 10.8225L8.21936 10.8825" fill="white"/>
<path d="M8.15935 10.4805L8.04535 10.8225L8.21936 10.8825" fill="white"/>
<path d="M8.15935 10.4805L8.04535 10.8225L8.21936 10.8825" fill="white"/>
<path d="M8.15935 10.4805L8.04535 10.8225L8.21936 10.8825" fill="white"/>
<path d="M8.15935 10.4805L8.04535 10.8225L8.21936 10.8825" fill="white"/>
<path d="M8.15935 10.4805L8.04535 10.8225L8.21936 10.8825" fill="white"/>
<path d="M8.15935 10.4805L8.04535 10.8225L8.21936 10.8825" fill="white"/>
<path d="M8.15935 10.4805L8.04535 10.8225L8.21936 10.8825" fill="white"/>
<path d="M8.15935 10.4805L8.04535 10.8225L8.21936 10.8825" fill="white"/>
<path d="M8.15935 10.4805L8.04535 10.8225L8.21936 10.8825" fill="white"/>
<path d="M8.15935 10.4805L8.04535 10.8225L8.21936 10.8825" fill="white"/>
</g>
<path d="M38.264 5.816C38.2107 6.37067 38.056 6.86133 37.8 7.288C37.544 7.704 37.144 8.02933 36.6 8.264C36.056 8.49867 35.3253 8.616 34.408 8.616C33.4693 8.616 32.7333 8.504 32.2 8.28C31.6773 8.04533 31.304 7.72 31.08 7.304C30.856 6.888 30.7227 6.392 30.68 5.816H32.808C32.8613 6.40267 33.0107 6.792 33.256 6.984C33.5013 7.176 33.9013 7.272 34.456 7.272C34.9147 7.272 35.288 7.17067 35.576 6.968C35.8747 6.75467 36.0507 6.37067 36.104 5.816H38.264ZM36.072 17.656C35.752 18.3813 35.4107 19.0107 35.048 19.544C34.696 20.0667 34.2427 20.4667 33.688 20.744C33.1333 21.0213 32.408 21.16 31.512 21.16C31.2347 21.16 30.9307 21.1387 30.6 21.096C30.2693 21.0533 29.9653 20.9947 29.688 20.92V18.84C29.944 18.9467 30.2267 19.0213 30.536 19.064C30.8453 19.1067 31.1333 19.128 31.4 19.128C31.752 19.128 32.0347 19.0693 32.248 18.952C32.472 18.8347 32.648 18.6747 32.776 18.472C32.9147 18.2587 33.0267 18.0293 33.112 17.784L29.16 9.576H31.72L33.848 14.52C33.9013 14.6267 33.9653 14.7653 34.04 14.936C34.1147 15.1067 34.1893 15.2827 34.264 15.464C34.3387 15.6453 34.3973 15.8053 34.44 15.944H34.52C34.5627 15.816 34.616 15.6613 34.68 15.48C34.7547 15.288 34.8293 15.096 34.904 14.904C34.9893 14.7013 35.064 14.5253 35.128 14.376L37.112 9.576H39.608L36.072 17.656ZM44.0414 12.104C44.6707 12.104 45.2574 12.1893 45.8014 12.36C46.356 12.52 46.7987 12.7707 47.1294 13.112C47.4707 13.4533 47.6414 13.8907 47.6414 14.424C47.6414 14.9467 47.4814 15.3627 47.1614 15.672C46.852 15.9813 46.4307 16.2053 45.8974 16.344V16.424C46.2707 16.5093 46.6067 16.632 46.9054 16.792C47.204 16.9413 47.4387 17.1493 47.6094 17.416C47.7907 17.672 47.8814 18.0187 47.8814 18.456C47.8814 18.936 47.7267 19.384 47.4174 19.8C47.1187 20.2053 46.6494 20.536 46.0094 20.792C45.38 21.0373 44.5694 21.16 43.5774 21.16C43.108 21.16 42.6654 21.1387 42.2494 21.096C41.8334 21.0533 41.4547 20.9947 41.1134 20.92C40.772 20.8347 40.4734 20.7333 40.2174 20.616V18.648C40.58 18.8187 41.0227 18.9733 41.5454 19.112C42.0787 19.2507 42.644 19.32 43.2414 19.32C43.6787 19.32 44.068 19.288 44.4094 19.224C44.7614 19.16 45.0387 19.0533 45.2414 18.904C45.4547 18.7547 45.5614 18.5573 45.5614 18.312C45.5614 18.0773 45.4707 17.8853 45.2894 17.736C45.108 17.576 44.836 17.4587 44.4734 17.384C44.1107 17.3093 43.6467 17.272 43.0814 17.272H42.1534V15.624H43.0334C43.8227 15.624 44.4307 15.56 44.8574 15.432C45.2947 15.304 45.5134 15.064 45.5134 14.712C45.5134 14.4347 45.3747 14.2267 45.0974 14.088C44.82 13.9387 44.3667 13.864 43.7374 13.864C43.3214 13.864 42.868 13.912 42.3774 14.008C41.8867 14.104 41.4227 14.2427 40.9854 14.424L40.2814 12.76C40.7827 12.568 41.332 12.4133 41.9294 12.296C42.5267 12.168 43.2307 12.104 44.0414 12.104Z" fill="#3F51B5"/>
<defs>
<clipPath id="clip0_7117_234">
<rect y="7" width="20" height="15" rx="2" fill="white"/>
</clipPath>
</defs>
</svg>
