<svg width="70" height="70" viewBox="0 0 70 70" fill="none" xmlns="http://www.w3.org/2000/svg">
<circle cx="35" cy="35" r="35" fill="#3F51B5"/>
<circle cx="35" cy="35" r="32" fill="white"/>
<mask id="mask0_1003_2304" style="mask-type:alpha" maskUnits="userSpaceOnUse" x="7" y="7" width="56" height="56">
<circle cx="35" cy="35" r="28" fill="white"/>
</mask>
<g mask="url(#mask0_1003_2304)">
<path d="M23.3333 30.9167C23.3333 24.4733 28.5566 19.25 34.9999 19.25C41.4432 19.25 46.6666 24.4733 46.6666 30.9167C46.6666 37.36 41.4432 42.5833 34.9999 42.5833C28.5566 42.5833 23.3333 37.36 23.3333 30.9167ZM34.9999 37.9167C38.8659 37.9167 41.9999 34.7827 41.9999 30.9167C41.9999 27.0507 38.8659 23.9167 34.9999 23.9167C31.1339 23.9167 27.9999 27.0507 27.9999 30.9167C27.9999 34.7827 31.1339 37.9167 34.9999 37.9167Z" fill="#3F51B5"/>
<path d="M21.8006 50.384C18.2999 53.8847 16.3333 58.6326 16.3333 63.5833H20.9999C20.9999 59.8703 22.4749 56.3093 25.1004 53.6838C27.7259 51.0583 31.2869 49.5833 34.9999 49.5833C38.7129 49.5833 42.2739 51.0583 44.8994 53.6838C47.5249 56.3093 48.9999 59.8703 48.9999 63.5833H53.6666C53.6666 58.6326 51.6999 53.8847 48.1992 50.384C44.6986 46.8833 39.9506 44.9167 34.9999 44.9167C30.0492 44.9167 25.3013 46.8833 21.8006 50.384Z" fill="#3F51B5"/>
</g>
</svg>
